<?xml version="1.0" encoding="utf-8"?>
<!-- Generator: Adobe Illustrator 15.1.0, SVG Export Plug-In . SVG Version: 6.00 Build 0)  -->
<!DOCTYPE svg PUBLIC "-//W3C//DTD SVG 1.1//EN" "http://www.w3.org/Graphics/SVG/1.1/DTD/svg11.dtd">
<svg version="1.1" id="Layer_1" xmlns="http://www.w3.org/2000/svg" xmlns:xlink="http://www.w3.org/1999/xlink" x="0px" y="0px"
	 width="180px" height="55px" viewBox="0 0 180 55" enable-background="new 0 0 180 55" xml:space="preserve">
<text transform="matrix(1 0 0 1 0.4653 42.541)" fill="#FFF5C3" font-family="'Merienda-Regular_0_wt'" font-size="20">Tiny House Mom</text>
<g>
	<path fill-rule="evenodd" clip-rule="evenodd" fill="#FFF5C3" d="M-127.131-79.832c0.066,0,0.133,0,0.2,0
		c0.646,1.91-0.562,3.642-1.005,5.125c-1.663-0.571-2.565,0.884-3.632,2.148c-4.178,4.952-7.771,11.044-9.533,18.053
		c0.442-5.618,0.845-11.269,3.313-15.48C-135.575-73.757-130.563-77.414-127.131-79.832z"/>
	<path fill-rule="evenodd" clip-rule="evenodd" fill="#FFF5C3" d="M-124.317-37.32c-0.201,0-0.402,0-0.604,0
		c-2.015-0.511-4.471-1.379-5.829-2.814c-0.713-0.753-1.278-2.025-1.708-3.115c-0.352-0.893-0.533-2.142-1.206-2.813
		c-0.473-0.474-1.377-0.705-2.11-1.004c-2.49-1.017-4.525-1.621-6.03-3.317c1.887,1.196,4.305,1.858,7.337,1.909
		c0.802,0.876,1.504,1.839,2.312,2.714c0.771,0.834,1.728,1.838,3.115,2.01c0.781-0.973-0.101-2.467-0.101-3.619
		c0.909,1.153,1.514,3.153,2.513,4.222c0.007,0.008,0.27,0.599,0.401,0.201c-0.114-2.246-1.241-4.479-2.612-6.131
		c-1.753-2.108-4.16-3.632-8.04-3.315c1.49-1.989,3.88-4.772,4.422-7.94c0.256-1.496-0.041-3.999-1.206-4.121
		c-0.938-0.098-1.864,1.559-2.312,2.211c-0.694,1.013-4.599,7.176-5.125,7.738c1.28-3.947,6.999-12.258,9.346-15.075
		c0.781-0.936,2.601-4.679,3.819-5.125c0.696,7.285-3.604,14.972-5.829,19.798c0.545,0.383,1.437,0.826,2.111,1.408
		c3.258,2.809,6.307,7.902,7.537,13.065C-123.826-39.219-123.465-37.47-124.317-37.32z"/>
	<path fill-rule="evenodd" clip-rule="evenodd" fill="#FFF5C3" d="M-147.533-65.36c1.589-0.557,1.374,1.783,0.201,1.708
		C-147.883-63.686-148.703-64.95-147.533-65.36z M-147.131-64.556c0.287,0.02,0.548,0.013,0.502-0.301
		c-0.015-0.22-0.253-0.216-0.502-0.201C-147.202-64.749-147.202-64.865-147.131-64.556z"/>
	<path fill-rule="evenodd" clip-rule="evenodd" fill="#FFF5C3" d="M-144.317-52.998c-0.351-2.559-0.839-4.45-2.01-6.03
		c-1.002-1.353-2.625-2.542-4.724-2.714c-4.763-0.39-10.087,3.41-13.065,5.126c0.73-0.847,1.79-1.464,2.813-2.112
		c3.04-1.918,6.543-3.797,10.151-5.226c1.25-1.714,3.179-3.876,6.231-3.518c1.584,0.187,3.134,1.381,3.819,2.01
		c-1.439-1.171-5.327-1.914-7.035-0.101c-0.196,0.209-0.783,0.979-0.705,1.507c0.149,0.996,2.026,0.893,3.217,1.106
		c1.829,0.327,3.419,1.19,3.819,2.915c0.47,2.024-0.357,3.81-1.105,5.226C-143.272-54.123-143.583-53.302-144.317-52.998z"/>
	<path fill-rule="evenodd" clip-rule="evenodd" fill="#FFF5C3" d="M-146.536-75.249c-0.021,0.008-0.042,0.016-0.063,0.024
		c-0.173,0.78-0.557,0.767,0.843,1.973c0.463,0.304,0.565,0.297,1.11,0.693c1.9,1.381,2.23,1.072,4.127,2.697
		c0.092-1.364,0.257-1.191-1.162-2.619C-142.952-73.76-145.346-74.531-146.536-75.249z"/>
</g>
<g>
	<path fill-rule="evenodd" clip-rule="evenodd" fill="#FFFCEC" d="M169.135,9.097c-0.044-0.125-0.106-0.232-0.106-0.403
		C169.084,8.808,169.142,8.92,169.135,9.097z"/>
	<path fill-rule="evenodd" clip-rule="evenodd" fill="#FFFEF4" d="M171.738,13.767c0.084-0.012,0.085,0.057,0.08,0.134
		C171.743,13.904,171.741,13.835,171.738,13.767z"/>
	<path fill-rule="evenodd" clip-rule="evenodd" fill="#FFFEF4" d="M153.463,16.289c0.09-0.045,0.366-0.045,0.456,0
		C153.767,16.289,153.615,16.289,153.463,16.289z"/>
	<path fill-rule="evenodd" clip-rule="evenodd" fill="#FFFEF4" d="M154.482,16.96c0.045,0.064,0.045,0.312,0,0.376
		C154.482,17.21,154.482,17.085,154.482,16.96z"/>
	<path fill-rule="evenodd" clip-rule="evenodd" fill="#FFFEF4" d="M152.523,17.041c0,0.089,0,0.178,0,0.268
		C152.479,17.28,152.479,17.069,152.523,17.041z"/>
	<path fill-rule="evenodd" clip-rule="evenodd" fill="#FFFEF4" d="M153.302,18.302c0.126,0,0.251,0,0.377,0
		C153.613,18.347,153.366,18.347,153.302,18.302z"/>
	<path fill-rule="evenodd" clip-rule="evenodd" fill="#FFFCEC" d="M171.631,4.159c0.723-0.806,1.479-1.579,2.281-2.308
		C173.133,2.602,172.377,3.376,171.631,4.159z"/>
	<path fill-rule="evenodd" clip-rule="evenodd" fill="#FFFCEC" d="M169.43,6.709c-0.053,0-0.033,0.073-0.106,0.054
		c0.024,0.167-0.087,0.2-0.161,0.268c0.057-0.092,0.183-0.151,0.106-0.242c0.101-0.136,0.213-0.093,0.296-0.241
		c0.005,0.094-0.091,0.088-0.107,0.161C169.448,6.709,169.439,6.709,169.43,6.709z"/>
	<path fill-rule="evenodd" clip-rule="evenodd" fill="#FFFEF4" d="M160.279,28.149c0.058,0.042,0.048,0.148,0.134,0.163
		C160.36,28.437,160.29,28.233,160.279,28.149z"/>
	<path fill-rule="evenodd" clip-rule="evenodd" fill="#FFFCEC" d="M160.601,27.962c0.031-0.131,0.164-0.159,0.216-0.268
		c0.023,0.012,0.048,0.022,0.053,0.054c-0.051-0.01-0.039,0.123,0.027,0.081c-0.071,0.086-0.122,0.035-0.08-0.081
		C160.729,27.803,160.669,27.887,160.601,27.962z"/>
	<path fill-rule="evenodd" clip-rule="evenodd" fill="#FFFCEC" d="M161.191,27.4c0.016-0.13,0.225-0.205,0.215-0.27
		c0-0.01,0-0.018,0-0.027c0.033-0.012,0.055-0.034,0.054-0.08c0.01,0,0.018,0,0.026,0c0,0.044,0,0.09,0,0.133
		C161.343,27.193,161.276,27.306,161.191,27.4z"/>
	<path fill-rule="evenodd" clip-rule="evenodd" fill="#FFFCEC" d="M167.177,18.328c0.154-0.221,0.341-0.409,0.562-0.563
		C167.541,17.942,167.354,18.13,167.177,18.328z"/>
	<path fill-rule="evenodd" clip-rule="evenodd" fill="#FFFCEC" d="M172.812,33.303c0.355,0.278,0.662,0.607,0.938,0.967
		C173.45,33.935,173.147,33.602,172.812,33.303z"/>
	<path fill-rule="evenodd" clip-rule="evenodd" fill="#FFFCEC" d="M176.864,41.354c-0.035,0.21-0.253,0.04-0.269-0.08
		c0.054,0.052,0.088,0.126,0.16,0.161C176.843,41.457,176.812,41.364,176.864,41.354z"/>
	<path fill-rule="evenodd" clip-rule="evenodd" fill="#FFFEF4" d="M173.777,36.496c-0.062-0.009-0.06-0.082-0.106-0.106
		c-0.062,0.028-0.011,0.168-0.027,0.241c-0.053-0.038-0.033-0.228,0-0.27C173.737,36.358,173.728,36.456,173.777,36.496z"/>
	<path fill-rule="evenodd" clip-rule="evenodd" fill="#FFFCEC" d="M171.255,39.1c-0.396-0.312-0.729-0.685-1.047-1.073
		C170.549,38.393,170.882,38.766,171.255,39.1z"/>
	<path fill-rule="evenodd" clip-rule="evenodd" fill="#FFFCEC" d="M160.36,33.438c-0.127-0.044-0.187-0.154-0.27-0.242
		C160.192,33.264,160.26,33.367,160.36,33.438z"/>
	<path fill-rule="evenodd" clip-rule="evenodd" fill="#FFFCEC" d="M159.716,32.846c-0.132-0.082-0.253-0.175-0.322-0.32
		C159.481,32.653,159.617,32.731,159.716,32.846z"/>
	<path fill-rule="evenodd" clip-rule="evenodd" fill="#FFFCEC" d="M159.233,32.229c-0.119-0.097-0.227-0.203-0.322-0.322
		C159.029,32.003,159.137,32.11,159.233,32.229z"/>
	<path fill-rule="evenodd" clip-rule="evenodd" fill="#FFFFFF" d="M152.523,17.041c-0.044,0.028-0.044,0.239,0,0.268
		c0.113,0.478,0.379,0.802,0.778,0.993c0.064,0.045,0.312,0.045,0.377,0c0.46-0.129,0.688-0.492,0.804-0.966
		c0.045-0.064,0.045-0.312,0-0.376c-0.069-0.341-0.263-0.561-0.563-0.671c-0.09-0.045-0.366-0.045-0.456,0
		C153.021,16.411,152.633,16.586,152.523,17.041z"/>
	<path fill-rule="evenodd" clip-rule="evenodd" fill="#FFFCEC" d="M159.635,33.303c0.107,0.045,0.173,0.131,0.242,0.215
		C159.792,33.451,159.704,33.385,159.635,33.303z"/>
	<path fill-rule="evenodd" clip-rule="evenodd" fill="#FFFCEC" d="M168.438,37.73c0.141,0.074,0.248,0.183,0.322,0.322
		C168.662,37.936,168.556,37.827,168.438,37.73z"/>
	<path fill-rule="evenodd" clip-rule="evenodd" fill="#FFFCEC" d="M171.765,44.387c0.146,0.122,0.279,0.257,0.403,0.402
		C172.022,44.666,171.888,44.531,171.765,44.387z"/>
	<path fill-rule="evenodd" clip-rule="evenodd" fill="#FFFCEC" d="M153.409,22.247c0.258,0.19,0.481,0.414,0.672,0.67
		C153.867,22.683,153.645,22.459,153.409,22.247z"/>
	<path fill-rule="evenodd" clip-rule="evenodd" fill="#FFFCEC" d="M157.22,29.922c0.097-0.119,0.204-0.227,0.322-0.322
		C157.446,29.719,157.339,29.825,157.22,29.922z"/>
	<path fill-rule="evenodd" clip-rule="evenodd" fill="#FFFCEC" d="M158.884,20.825c-0.181-0.159-0.351-0.329-0.51-0.51
		C158.555,20.473,158.725,20.643,158.884,20.825z"/>
	<path fill-rule="evenodd" clip-rule="evenodd" fill="#FFFCEC" d="M152.497,16.262c0.057-0.123,0.146-0.212,0.269-0.269
		C152.666,16.073,152.576,16.163,152.497,16.262z"/>
	<path fill-rule="evenodd" clip-rule="evenodd" fill="#FFFCEC" d="M150.135,16.692c0.258-0.289,0.515-0.578,0.806-0.832
		C150.671,16.136,150.417,16.427,150.135,16.692z"/>
	<path fill-rule="evenodd" clip-rule="evenodd" fill="#FFFCEC" d="M134.785,26.031c0.15-0.174,0.311-0.335,0.483-0.484
		C135.119,25.719,134.958,25.881,134.785,26.031z"/>
	<path fill-rule="evenodd" clip-rule="evenodd" fill="#FFF8D3" d="M173.912,1.852c0.635-0.528,1.263-1.063,1.932-1.557
		c0.009,0,0.019,0,0.027,0c-0.656,0.516-1.325,1.019-1.933,1.583c-0.11,0.087-0.208,0.186-0.295,0.295c-0.009,0-0.019,0-0.027,0
		c-0.457,0.436-0.905,0.883-1.342,1.342c0,0.008,0,0.018,0,0.026c-0.127,0.105-0.243,0.222-0.349,0.349c0,0.009,0,0.018,0,0.026
		c-0.101,0.079-0.189,0.168-0.268,0.269c-0.666,0.659-1.132,1.516-1.905,2.066c0-0.009,0-0.018,0-0.027
		c0.755-0.559,1.247-1.382,1.878-2.066C172.377,3.376,173.133,2.602,173.912,1.852z"/>
	<path fill-rule="evenodd" clip-rule="evenodd" fill="#FFF6C7" d="M171.04,29.734c0.101,0.077,0.19,0.166,0.269,0.268
		C171.208,29.923,171.119,29.834,171.04,29.734z"/>
	<path fill-rule="evenodd" clip-rule="evenodd" fill="#FFF6C7" d="M171.336,30.002c0.352,0.329,0.69,0.669,1.02,1.021
		C172.004,30.693,171.665,30.354,171.336,30.002z"/>
	<path fill-rule="evenodd" clip-rule="evenodd" fill="#FFF6C7" d="M172.355,31.049c0.109,0.088,0.209,0.186,0.295,0.294
		C172.541,31.258,172.442,31.157,172.355,31.049z"/>
	<path fill-rule="evenodd" clip-rule="evenodd" fill="#FFF6C7" d="M172.195,44.761c-0.146-0.122-0.28-0.256-0.403-0.4
		C171.938,44.482,172.071,44.617,172.195,44.761z"/>
	<path fill-rule="evenodd" clip-rule="evenodd" fill="#FFF6C7" d="M168.786,37.999c-0.109-0.086-0.208-0.186-0.296-0.295
		C168.601,37.79,168.699,37.89,168.786,37.999z"/>
	<path fill-rule="evenodd" clip-rule="evenodd" fill="#FFF6C7" d="M158.884,31.935c0.118,0.097,0.226,0.203,0.322,0.322
		C159.088,32.159,158.98,32.053,158.884,31.935z"/>
	<path fill-rule="evenodd" clip-rule="evenodd" fill="#FFF6C7" d="M170.182,38.079c0.118,0.097,0.227,0.203,0.321,0.322
		C170.385,38.305,170.277,38.198,170.182,38.079z"/>
	<path fill-rule="evenodd" clip-rule="evenodd" fill="#FFF6C7" d="M170.503,38.428c0.245,0.223,0.477,0.455,0.698,0.698
		C170.958,38.905,170.725,38.673,170.503,38.428z"/>
	<path fill-rule="evenodd" clip-rule="evenodd" fill="#FFF6C7" d="M173.536,33.947c-0.234-0.212-0.459-0.437-0.671-0.671
		C173.101,33.488,173.323,33.712,173.536,33.947z"/>
	<path fill-rule="evenodd" clip-rule="evenodd" fill="#FFF5C3" d="M173.938,1.878c0.607-0.565,1.276-1.068,1.933-1.583
		c0.08,0,0.161,0,0.241,0c0.339,0.942,0.209,2.013-0.08,2.952c-0.155,0.501-0.42,0.962-0.537,1.422c-0.03,0.118,0,0.24-0.026,0.349
		c-0.033,0.132-0.144,0.269-0.188,0.403c-0.051,0.149-0.053,0.293-0.161,0.402c-0.028,0.126,0.093,0.103,0.053,0.241
		c-0.192,0.458-0.271,0.915-0.482,1.369c-0.102,0.216-0.253,0.41-0.215,0.778c-0.165,0.172-0.099,0.388-0.188,0.591
		c-0.065,0.149-0.223,0.24-0.268,0.402c-0.042,0.149-0.071,0.355-0.081,0.537c-0.058,1.04,0.032,1.984-0.026,2.898
		c-0.41,6.37-3.268,10.597-5.367,15.351c0,0.009,0,0.018,0,0.026c0.808,0.597,1.774,1.034,2.495,1.718
		c0.079,0.1,0.168,0.188,0.269,0.268c0.009,0,0.018,0,0.027,0c0.329,0.352,0.668,0.691,1.02,1.021c0,0.009,0,0.018,0,0.026
		c0.087,0.108,0.186,0.209,0.295,0.294c2.854,3.296,5.428,7.719,6.629,12.908c0.174,0.752,0.395,1.629,0.322,2.47
		c-0.037,0.418-0.196,0.723-0.484,0.859c-0.285,0-0.571,0-0.857,0c-2.28-0.682-4.507-1.417-6.064-2.819
		c-0.124-0.144-0.258-0.278-0.403-0.4c-0.725-0.832-1.201-1.9-1.664-3.033c-0.456-1.117-0.668-2.383-1.342-3.328
		c-0.087-0.109-0.186-0.209-0.296-0.295c-1.7-0.938-3.731-1.486-5.527-2.308c-0.894-0.409-1.706-0.895-2.441-1.476
		c-0.368-0.291-0.782-0.506-1.101-0.86c-0.312-0.343-0.552-0.736-0.806-1.153c0.071,0.027,0.165,0.031,0.269,0.027
		c0.097,0.118,0.204,0.225,0.322,0.322c0.158,0.347,0.418,0.578,0.724,0.858c1.258,1.146,3.559,1.687,5.717,1.932
		c0.304,0.035,0.65,0.087,0.993,0.106c0.335,0.021,0.743-0.053,1.047,0.028c0.22,0.06,0.474,0.464,0.67,0.698
		c0.638,0.764,1.183,1.436,1.825,2.199c0.096,0.119,0.203,0.226,0.321,0.322c0,0.009,0,0.018,0,0.026
		c0.222,0.245,0.455,0.478,0.698,0.698c0.697,0.582,1.429,1.13,2.522,1.315c0.933-0.979,0.012-2.672-0.053-3.945
		c0.118-0.031,0.292,0.357,0.402,0.538c0.879,1.431,1.531,3.302,2.71,4.454c0.239-0.259,0.09-0.772,0.026-1.153
		c-0.44-2.674-1.844-4.714-3.273-6.388c-0.213-0.235-0.436-0.459-0.671-0.671c-1.774-1.592-4.227-2.782-7.729-2.469
		c-0.06-0.135,0.114-0.225,0.188-0.322c1.263-1.702,2.551-3.315,3.569-5.341c0.73-1.454,1.482-3.545,1.046-5.85
		c-0.138-0.729-0.469-1.792-1.233-1.906c-0.502-0.075-0.704,0.186-1.02,0.35c-0.19,0.167-0.369,0.346-0.537,0.536
		c-0.521,0.74-1.082,1.499-1.584,2.308c-0.159,0.258-0.368,0.549-0.482,0.805c-0.047,0.106-0.035,0.224-0.08,0.323
		c-0.082,0.178-0.272,0.315-0.376,0.509c-0.215,0.401-0.384,0.883-0.618,1.234c-0.087,0.133-0.24,0.214-0.321,0.349
		c-0.112,0.19-0.169,0.367-0.295,0.537c-0.326,0.435-0.701,0.915-0.993,1.423c-0.093,0.068-0.127,0.194-0.214,0.269
		c-0.218,0.373-0.484,0.696-0.752,1.019c-0.088,0.102-0.186,0.19-0.269,0.296c-0.038,0.113-0.142,0.163-0.161,0.294
		c-0.142-0.063-0.327,0.134-0.429,0.27c-0.083,0.084-0.141,0.315-0.215,0.322c-0.116-0.199,0.042-0.278,0.08-0.457
		c0.113-0.52,0.113-1.064,0.188-1.556c0.976-6.393,3.532-11.412,6.441-15.94c0.221-0.346,0.435-0.705,0.67-1.047
		c0.487-0.706,0.962-1.424,1.45-2.174c0.177-0.108,0.254-0.318,0.401-0.456c-0.001-0.139,0.053-0.124,0.081-0.269
		c0.038-0.015,0.065-0.042,0.081-0.081c0.773-0.55,1.239-1.408,1.905-2.066c0.101-0.078,0.19-0.167,0.268-0.269
		c0-0.008,0-0.018,0-0.026c0.128-0.105,0.244-0.222,0.349-0.349c0-0.009,0-0.018,0-0.026c0.459-0.436,0.906-0.884,1.342-1.342
		c0.009,0,0.019,0,0.027,0C173.753,2.086,173.852,1.988,173.938,1.878z M174.637,6.146c-1.086,0.318-1.95,1.092-2.764,1.771
		c-0.128,0.105-0.245,0.222-0.349,0.349c-0.01,0-0.019,0-0.027,0c-0.146,0.123-0.28,0.257-0.402,0.403c-0.009,0-0.019,0-0.027,0
		c-0.186,0.145-0.324,0.337-0.51,0.482c-0.101-0.427-0.255-0.801-0.376-1.207c-0.09-0.062-0.076-0.228-0.16-0.295
		c0-0.009,0-0.018,0-0.027c-0.04-0.042-0.036-0.125-0.082-0.161c0.002-0.046-0.02-0.069-0.053-0.081c0-0.009,0-0.018,0-0.027
		c-0.062-0.09-0.04-0.264-0.161-0.295c-0.144,0.412-0.564,0.544-0.671,0.993c-0.1-0.011-0.157,0.021-0.161,0.107
		c0.096,0.047,0.138-0.09,0.161-0.027c-0.104,0.48,0.23,0.961,0.322,1.423c0.01,0.064-0.122-0.016-0.081,0.08
		c0.088,0.199,0.186,0.387,0.269,0.59c-4.149,4.626-7.124,10.426-8.964,17.364c0.264-0.061,0.257-0.389,0.484-0.484
		c0.009,0,0.018,0,0.026,0c0.35-0.439,0.694-0.988,0.939-1.449c0.029,0.086,0.002,0.062,0,0.161
		c0.092-0.035,0.127-0.173,0.107-0.268c-0.01,0-0.019,0-0.027,0c-0.004-0.077,0.207-0.17,0.188-0.348
		c0.196-0.02,0.241-0.189,0.295-0.351c0.035,0.004,0.038,0.035,0.082,0.028c0.005-0.051-0.031-0.06-0.027-0.107
		c0.091-0.107,0.187-0.207,0.24-0.349c0.175-0.113,0.352-0.364,0.351-0.563c-0.01,0-0.019,0-0.027,0
		c-0.106,0.074,0.028-0.121,0.081-0.134c0.04,0.117,0.191,0.011,0.187-0.081c0-0.009,0-0.019,0-0.027
		c0.252-0.455,0.586-0.828,0.778-1.342c-0.011-0.042-0.084-0.023-0.053-0.107c0.036-0.001,0.059,0.013,0.08,0.026
		c0.798-1.908,1.632-3.753,2.684-5.421c0.788-1.249,1.669-2.428,2.55-3.542c0.311-0.393,0.552-0.816,0.912-1.074
		c0.004,0.05,0.091,0.017,0.107,0.054c-0.022,0.031-0.036,0.072-0.027,0.134c-0.017,0.002-0.031,0.004-0.027,0.027
		c-0.025,0-0.031,0.021-0.053,0.026c0.042,0.191,0.24,0.225,0.241,0.457c0,0.009,0,0.018,0,0.027
		c0.104-0.004,0.01,0.022,0.027,0.081c0.018,0,0.035,0,0.054,0c-0.014,0.032-0.029,0.061-0.054,0.08
		c-0.042-0.061-0.004,0.203,0.026,0.242c0.015,0.039,0.042,0.066,0.08,0.081c0,0.009,0,0.018,0,0.027
		c0.256,0.362,0.401,0.833,0.591,1.261c0.066,0.149,0.151,0.279,0.322,0.322c0.191-0.103,0.435-0.156,0.698-0.188
		c-0.051-0.357-0.137-0.537-0.269-0.778c-0.04-0.064-0.081-0.06-0.108-0.081c0.002-0.035,0.034-0.038,0.026-0.081
		c-0.145-0.212-0.182-0.532-0.374-0.698c0.082-0.027-0.013-0.09-0.027-0.108c0.031-0.004,0.029-0.042,0.027-0.08
		c-0.038,0.001-0.059-0.013-0.081-0.027c0.001-0.037-0.013-0.059-0.027-0.081c-0.078-0.028-0.042-0.172-0.079-0.241
		c-0.152-0.435-0.217-0.978-0.35-1.422c0.196-0.234,0.387-0.472,0.59-0.698c0.262-0.239,0.513-0.489,0.752-0.751
		c0.34-0.294,0.719-0.55,1.154-0.751c0.099-0.285,0.298-0.471,0.376-0.778c-0.044-0.077,0.032-0.225,0.106-0.268
		c0.098-0.374,0.256-0.867,0.376-1.261c0-0.009,0-0.019,0-0.027c0.063-0.088,0.206-0.239,0.134-0.375c-0.009,0-0.018,0-0.026,0
		c-0.062-0.008-0.03,0.078-0.081,0.081c0.015-0.076,0.065-0.114,0.081-0.188C174.637,6.163,174.637,6.154,174.637,6.146z
		 M169.162,9.178c0.061-0.151-0.08-0.331-0.08-0.51c-0.027,0-0.054,0-0.081,0C169.019,8.873,169.052,9.064,169.162,9.178z"/>
	<path fill-rule="evenodd" clip-rule="evenodd" fill="#FFF6C7" d="M167.149,18.275c0.168-0.19,0.347-0.369,0.537-0.536
		C167.518,17.929,167.34,18.107,167.149,18.275z"/>
	<path fill-rule="evenodd" clip-rule="evenodd" fill="#FFF6C7" d="M162.186,26.031c0.087-0.074,0.121-0.2,0.214-0.269
		c-0.01,0.035-0.048,0.042-0.054,0.079c0,0.009,0,0.02,0,0.027C162.304,25.935,162.249,25.988,162.186,26.031z"/>
	<path fill-rule="evenodd" clip-rule="evenodd" fill="#FFF6C7" d="M161.165,27.346c0.083-0.105,0.181-0.194,0.269-0.296
		c-0.006,0.021-0.027,0.026-0.027,0.054c0,0.01,0,0.018,0,0.027C161.31,27.187,161.261,27.289,161.165,27.346z"/>
	<path fill-rule="evenodd" clip-rule="evenodd" fill="#FFF6C7" d="M160.575,27.909c0.102-0.136,0.287-0.333,0.429-0.27
		c-0.017,0.074-0.112,0.068-0.107,0.163c-0.026-0.002-0.021-0.033-0.027-0.055c-0.005-0.031-0.029-0.042-0.053-0.054
		C160.72,27.75,160.671,27.854,160.575,27.909z"/>
	<path fill-rule="evenodd" clip-rule="evenodd" fill="#FFF6C7" d="M169.189,7.058c0.076-0.121,0.22-0.173,0.24-0.349
		c0.01,0,0.019,0,0.027,0c0.062-0.018,0.072-0.089,0.134-0.107C169.443,6.739,169.366,6.949,169.189,7.058z"/>
	<path fill-rule="evenodd" clip-rule="evenodd" fill="#FFF6C7" d="M171.658,4.186c0.078-0.1,0.167-0.19,0.268-0.269
		C171.849,4.019,171.759,4.108,171.658,4.186z"/>
	<path fill-rule="evenodd" clip-rule="evenodd" fill="#FFF6C7" d="M171.926,3.891c0.105-0.127,0.222-0.244,0.349-0.349
		C172.17,3.669,172.054,3.786,171.926,3.891z"/>
	<path fill-rule="evenodd" clip-rule="evenodd" fill="#FFF6C7" d="M172.274,3.516c0.437-0.459,0.885-0.906,1.342-1.342
		C173.181,2.632,172.733,3.08,172.274,3.516z"/>
	<path fill-rule="evenodd" clip-rule="evenodd" fill="#FFF6C7" d="M173.644,2.174c0.087-0.11,0.185-0.208,0.295-0.295
		C173.852,1.988,173.753,2.086,173.644,2.174z"/>
	<path fill-rule="evenodd" clip-rule="evenodd" fill="#FFF8D3" d="M176.112,0.295c0.009,0,0.018,0,0.026,0
		c0.09,0.233,0.126,0.519,0.188,0.778c0.018,0.117-0.035,0.303,0.027,0.375c0,0.081,0,0.161,0,0.242
		c-0.062,0.072-0.01,0.259-0.027,0.375c-0.14,1.005-0.485,1.805-0.805,2.63c-0.062,0.055-0.011,0.223-0.027,0.322
		c-0.162,0.195-0.204,0.512-0.296,0.778c-0.137,0.061,0.056,0.126,0,0.269c-0.153,0.41-0.283,0.843-0.429,1.262
		c-0.012,0.123-0.095,0.173-0.134,0.268c-0.047,0.088-0.09,0.179-0.107,0.295c-0.062,0.055-0.01,0.224-0.027,0.322
		c-0.162,0.164-0.098,0.387-0.188,0.591c-0.065,0.148-0.222,0.237-0.268,0.402c-0.04,0.138-0.013,0.297-0.055,0.457
		c-0.003,1.239,0.025,2.697-0.106,3.891c-0.727,5.867-3.243,9.944-5.341,14.438c2.1-4.754,4.957-8.981,5.367-15.351
		c0.059-0.914-0.031-1.858,0.026-2.898c0.01-0.182,0.039-0.388,0.081-0.537c0.045-0.163,0.202-0.253,0.268-0.402
		c0.09-0.203,0.023-0.419,0.188-0.591c-0.038-0.369,0.113-0.562,0.215-0.778c0.212-0.454,0.29-0.91,0.482-1.369
		c0.04-0.138-0.081-0.115-0.053-0.241c0.108-0.109,0.11-0.253,0.161-0.402c0.044-0.134,0.154-0.271,0.188-0.403
		c0.026-0.108-0.004-0.23,0.026-0.349c0.117-0.46,0.382-0.921,0.537-1.422C176.321,2.308,176.451,1.237,176.112,0.295z"/>
	<path fill-rule="evenodd" clip-rule="evenodd" fill="#FFFCEC" d="M172.677,31.317c-0.53-0.543-1.063-1.083-1.609-1.609
		C171.636,30.212,172.17,30.751,172.677,31.317z"/>
	<path fill-rule="evenodd" clip-rule="evenodd" fill="#FFFEF4" d="M175.199,5.796c-0.078,0.064,0.109,0.18,0,0.269
		C175.255,5.922,175.062,5.857,175.199,5.796z"/>
	<path fill-rule="evenodd" clip-rule="evenodd" fill="#FFF6C7" d="M171.524,8.265c0.104-0.127,0.221-0.244,0.349-0.349
		C171.768,8.044,171.651,8.16,171.524,8.265z"/>
	<path fill-rule="evenodd" clip-rule="evenodd" fill="#FFF6C7" d="M171.095,8.668c0.122-0.146,0.256-0.28,0.402-0.403
		C171.374,8.411,171.239,8.544,171.095,8.668z"/>
	<path fill-rule="evenodd" clip-rule="evenodd" fill="#FFF6C7" d="M170.558,9.15c0.186-0.145,0.324-0.337,0.51-0.482
		C170.913,8.827,170.712,9.081,170.558,9.15z"/>
	<path fill-rule="evenodd" clip-rule="evenodd" fill="#FFF6C7" d="M170.182,7.943c-0.111-0.041-0.116-0.188-0.16-0.295
		C170.105,7.715,170.092,7.881,170.182,7.943z"/>
	<path fill-rule="evenodd" clip-rule="evenodd" fill="#FFF6C7" d="M162.695,24.715c-0.02-0.074,0.052-0.054,0.053-0.107
		c0.048-0.024,0.083-0.06,0.108-0.107c-0.019-0.028-0.062-0.028-0.055-0.081c0.054-0.045,0.034,0.002,0.106,0
		c-0.054,0.143-0.149,0.242-0.24,0.349C162.668,24.743,162.689,24.737,162.695,24.715z"/>
	<path fill-rule="evenodd" clip-rule="evenodd" fill="#FFF6C7" d="M170.745,13.283c-0.03-0.039-0.068-0.303-0.026-0.242
		c0,0.01,0,0.018,0,0.028C170.76,13.108,170.742,13.207,170.745,13.283z"/>
	<path fill-rule="evenodd" clip-rule="evenodd" fill="#FFF6C7" d="M171.416,14.652c0.03,0.006,0.042,0.03,0.054,0.054
		c0.069,0.092,0.15,0.172,0.242,0.242c0.022-0.005,0.025,0.01,0.026,0.026C171.567,14.931,171.482,14.801,171.416,14.652z"/>
	<path fill-rule="evenodd" clip-rule="evenodd" fill="#FFF6C7" d="M171.631,12.935c0.022,0.014,0.043,0.028,0.081,0.027
		c0.002,0.038,0.004,0.076-0.027,0.08c0.015,0.018,0.109,0.081,0.027,0.108C171.653,13.049,171.693,13.011,171.631,12.935z"/>
	<path fill-rule="evenodd" clip-rule="evenodd" fill="#FFF6C7" d="M171.765,10.493c0.239-0.262,0.49-0.512,0.752-0.751
		C172.277,10.003,172.026,10.253,171.765,10.493z"/>
	<path fill-rule="evenodd" clip-rule="evenodd" fill="#FFF8D3" d="M171.873,7.917c0.813-0.679,1.678-1.453,2.764-1.771
		c-0.968,0.366-1.763,0.903-2.441,1.556c-0.569,0.469-1.101,0.975-1.611,1.503c-0.018,0-0.035,0-0.054,0
		c0.003-0.039,0.005-0.076-0.027-0.081c-0.031-0.102,0.009-0.277-0.079-0.322c-0.114-0.187-0.156-0.859-0.322-0.913
		c-0.027-0.009-0.026,0.059-0.027,0.081c-0.069,0.071-0.043-0.047-0.08-0.081c0.122,0.058-0.016-0.155-0.027-0.214
		c-0.083,0.051,0.042,0.117,0.027,0.188c-0.029-0.007-0.018-0.053-0.055-0.054c-0.015-0.152-0.162-0.294-0.106-0.43
		c0.019,0,0.036,0,0.054,0c0.033,0.012,0.055,0.035,0.053,0.081c0.02,0.089-0.055,0.043-0.079,0.026
		c0.004,0.076,0.049,0.112,0.053,0.188c0.037-0.008,0.023-0.067,0.026-0.107c0.036,0.01,0.043,0.047,0.082,0.054
		c0,0.009,0,0.018,0,0.027c0.044,0.107,0.049,0.255,0.16,0.295c0.121,0.406,0.275,0.78,0.376,1.207
		c0.154-0.069,0.355-0.323,0.51-0.482c0.009,0,0.019,0,0.027,0c0.145-0.124,0.279-0.257,0.402-0.403c0.009,0,0.018,0,0.027,0
		C171.651,8.16,171.768,8.044,171.873,7.917z"/>
	<path fill-rule="evenodd" clip-rule="evenodd" fill="#FFF8D3" d="M174.529,6.307c0.081,0,0.025-0.135,0.107-0.135
		c-0.016,0.074-0.066,0.112-0.081,0.188c0.051-0.003,0.019-0.089,0.081-0.081c-0.016,0.056-0.057,0.087-0.081,0.134
		C174.517,6.409,174.531,6.349,174.529,6.307z"/>
	<path fill-rule="evenodd" clip-rule="evenodd" fill="#FFFEF4" d="M174.529,6.307c0.002,0.042-0.013,0.102,0.026,0.107
		c0.024-0.047,0.065-0.079,0.081-0.134c0.009,0,0.018,0,0.026,0c0.017,0.124-0.06,0.155-0.054,0.269
		c-0.023,0.021-0.061,0.029-0.107,0.027c-0.002,0.038-0.004,0.076,0.027,0.08c0,0.009,0,0.018,0,0.027
		c-0.096-0.042-0.017,0.091-0.081,0.081c-0.012-0.084,0.048-0.095,0.027-0.188c0.036-0.008,0.052-0.039,0.107-0.027
		c-0.02-0.082,0.046-0.079,0.026-0.161c-0.037,0.007-0.03,0.059-0.054,0.081C174.496,6.48,174.474,6.321,174.529,6.307z"/>
	<path fill-rule="evenodd" clip-rule="evenodd" fill="#FFFCEC" d="M171.738,10.466c0.238-0.262,0.49-0.512,0.752-0.751
		C172.25,9.976,172,10.227,171.738,10.466z"/>
	<path fill-rule="evenodd" clip-rule="evenodd" fill="#FFFEF4" d="M171.577,12.881c-0.051-0.06-0.099-0.224-0.08-0.268
		c0.009,0,0.018,0,0.027,0c0.037,0.069,0.001,0.213,0.079,0.241C171.587,12.855,171.572,12.858,171.577,12.881z"/>
	<path fill-rule="evenodd" clip-rule="evenodd" fill="#FFFEF4" d="M172.007,13.767c0.062-0.008,0.029,0.078,0.079,0.081
		c0.008,0.043-0.024,0.046-0.026,0.081c0.027,0.021,0.068,0.017,0.108,0.081c0.023,0.047,0.074,0.068,0.053,0.161
		c-0.039-0.005-0.024-0.065-0.025-0.107c-0.084-0.019-0.052-0.019-0.136,0C172.032,13.974,172.047,13.842,172.007,13.767z"/>
	<path fill-rule="evenodd" clip-rule="evenodd" fill="#FFFEF4" d="M172.382,14.625c0.06,0.003,0.012,0.114,0.027,0.161
		c-0.154-0.02-0.239,0.028-0.375,0.027c0.165,0.004,0.016-0.196,0.187-0.215c-0.024,0.047,0.001,0.144-0.08,0.134
		c0.021,0.061,0.15,0.011,0.215,0.027C172.414,14.764,172.368,14.664,172.382,14.625z"/>
	<path fill-rule="evenodd" clip-rule="evenodd" fill="#FFFCEC" d="M171.416,14.571c0.105-0.06,0.114,0.064,0.215,0.081
		c-0.008,0.055-0.071,0.054-0.106,0.081c0.051,0.074,0.113,0.137,0.188,0.188c0,0.009,0,0.019,0,0.027
		c-0.092-0.07-0.173-0.15-0.242-0.242c0.047,0.001,0.083-0.006,0.107-0.027c-0.04-0.062-0.066-0.041-0.135-0.027
		c-0.005-0.021,0-0.053-0.026-0.053C171.416,14.589,171.416,14.581,171.416,14.571z"/>
	<path fill-rule="evenodd" clip-rule="evenodd" fill="#FFFCEC" d="M170.772,12.961c0.037,0.092,0.049,0.217,0.027,0.322
		c0.093,0.054,0.042,0.088,0.106,0.162c-0.035-0.01-0.042-0.047-0.081-0.054c0-0.009,0-0.018,0-0.027
		c-0.101-0.034,0.002-0.27-0.106-0.295c0-0.01,0-0.018,0-0.028C170.743,13.022,170.759,12.993,170.772,12.961z"/>
	<path fill-rule="evenodd" clip-rule="evenodd" fill="#FFFEF4" d="M170.772,12.961c-0.019,0-0.036,0-0.054,0
		c-0.018-0.059,0.076-0.085-0.027-0.081c0-0.009,0-0.018,0-0.027c0.032-0.004,0.029-0.042,0.027-0.08
		C170.737,12.838,170.814,12.917,170.772,12.961z"/>
	<path fill-rule="evenodd" clip-rule="evenodd" fill="#FFFCEC" d="M170.53,12.344c0.009,0.076-0.051,0.162,0.081,0.215
		c-0.09-0.007-0.175-0.107-0.108-0.188C170.499,12.348,170.514,12.346,170.53,12.344z"/>
	<path fill-rule="evenodd" clip-rule="evenodd" fill="#FFFEF4" d="M164.225,22.167c-0.031,0.084,0.042,0.065,0.053,0.107
		c-0.074-0.012,0.021,0.146-0.053,0.134c0.019-0.108-0.025-0.153-0.027-0.241C164.207,22.167,164.215,22.167,164.225,22.167z"/>
	<path fill-rule="evenodd" clip-rule="evenodd" fill="#FFFCEC" d="M163.204,23.776c0.019-0.062,0.09-0.072,0.108-0.134
		c0.033,0.01,0.054,0.034,0.053,0.081c0.087,0.023,0.056-0.07,0.107-0.081c-0.005,0.075-0.047,0.114-0.134,0.106
		c0-0.017,0-0.036,0-0.053C163.254,23.683,163.268,23.768,163.204,23.776z"/>
	<path fill-rule="evenodd" clip-rule="evenodd" fill="#FFFCEC" d="M161.03,27.05c0.002-0.033,0.034-0.036,0.027-0.081
		c0.104,0.013,0.096,0.03,0.161-0.025c-0.011,0.078-0.088,0.091-0.107,0.16c-0.009,0-0.018,0-0.026,0
		c-0.003-0.047,0.005-0.084,0.026-0.106C161.072,27.002,161.066,27.041,161.03,27.05z"/>
	<path fill-rule="evenodd" clip-rule="evenodd" fill="#FFFEF4" d="M169.162,7.889c-0.139,0.061,0.045,0.312-0.107,0.322
		C169.124,8.138,169.011,7.882,169.162,7.889z"/>
	<path fill-rule="evenodd" clip-rule="evenodd" fill="#FFFEF4" d="M169.216,7.809c0.013-0.148,0.136-0.186,0.214-0.269
		C169.368,7.639,169.26,7.693,169.216,7.809z"/>
	<path fill-rule="evenodd" clip-rule="evenodd" fill="#FFFEF4" d="M169.939,7.809c0.037,0,0.025,0.047,0.055,0.054
		c0,0.009,0,0.018,0,0.026c0.037,0.034,0.011,0.152,0.08,0.081c0,0.027,0,0.054,0,0.081C169.966,8.034,169.977,7.897,169.939,7.809z
		"/>
	<path fill-rule="evenodd" clip-rule="evenodd" fill="#FFFEF4" d="M170.503,9.124c-0.107-0.081-0.018-0.195-0.079-0.322
		C170.512,8.847,170.472,9.022,170.503,9.124z"/>
	<path fill-rule="evenodd" clip-rule="evenodd" fill="#FFFCEC" d="M170.584,9.205c0.511-0.528,1.042-1.034,1.611-1.503
		C171.649,8.194,171.117,8.7,170.584,9.205z"/>
	<path fill-rule="evenodd" clip-rule="evenodd" fill="#FFFCEC" d="M169.564,6.467c0.04-0.104,0.092-0.195,0.188-0.242
		c0,0.009,0,0.018,0,0.027c-0.016,0.039-0.043,0.066-0.081,0.081C169.625,6.367,169.639,6.46,169.564,6.467z"/>
	<path fill-rule="evenodd" clip-rule="evenodd" fill="#FFF8D3" d="M174.663,6.279c0.072,0.136-0.07,0.287-0.134,0.375
		c-0.031-0.004-0.029-0.042-0.027-0.08c0.047,0.002,0.084-0.006,0.107-0.027C174.604,6.434,174.68,6.403,174.663,6.279z"/>
	<path fill-rule="evenodd" clip-rule="evenodd" fill="#FFF8D3" d="M169.564,6.467c0.074-0.007,0.061-0.1,0.107-0.134
		c-0.028,0.145-0.082,0.13-0.081,0.269c-0.062,0.018-0.071,0.089-0.134,0.107c0.017-0.073,0.112-0.067,0.107-0.161
		C169.606,6.541,169.583,6.489,169.564,6.467z"/>
	<path fill-rule="evenodd" clip-rule="evenodd" fill="#FFF8D3" d="M169.162,7.031c0.074-0.068,0.186-0.101,0.161-0.268
		c0.073,0.019,0.054-0.054,0.106-0.054c-0.021,0.175-0.164,0.228-0.24,0.349c-0.488,0.75-0.963,1.468-1.45,2.174
		c-0.235,0.342-0.449,0.701-0.67,1.047c-2.909,4.529-5.466,9.548-6.441,15.94c-0.074,0.491-0.074,1.036-0.188,1.556
		c-0.038,0.179-0.196,0.258-0.08,0.457c0.074-0.007,0.132-0.238,0.215-0.322c0.096-0.056,0.145-0.159,0.241-0.215
		c-0.052,0.108-0.185,0.137-0.216,0.268c-0.118,0.062-0.155,0.201-0.188,0.351c-0.086-0.015-0.076-0.121-0.134-0.163
		c-0.033-0.175,0.133-0.152,0.107-0.32c0.061-0.037,0.01-0.188,0.026-0.269c0.984-7.569,3.848-13.335,7.354-18.356
		C168.268,8.487,168.687,7.728,169.162,7.031z"/>
	<path fill-rule="evenodd" clip-rule="evenodd" fill="#FFF8D3" d="M174.448,6.763c0.064,0.01-0.015-0.123,0.081-0.081
		c-0.12,0.394-0.278,0.887-0.376,1.261c0.08-0.316,0.1-0.737,0.322-1.02C174.496,6.841,174.429,6.844,174.448,6.763z"/>
	<path fill-rule="evenodd" clip-rule="evenodd" fill="#FFF8D3" d="M161.085,27.104c-0.228,0.096-0.221,0.424-0.484,0.484
		c1.84-6.938,4.814-12.737,8.964-17.364c-0.083-0.204-0.181-0.392-0.269-0.59c-0.041-0.096,0.091-0.016,0.081-0.08
		c-0.092-0.461-0.427-0.943-0.322-1.423c-0.023-0.063-0.065,0.074-0.161,0.027c0.004-0.086,0.062-0.118,0.161-0.107
		c0.106-0.449,0.527-0.582,0.671-0.993c0.121,0.031,0.1,0.205,0.161,0.295c-0.075-0.06-0.084-0.184-0.134-0.268
		c-0.059,0.202-0.242,0.277-0.323,0.456c-0.078,0.083-0.201,0.12-0.214,0.269c-0.038,0.007-0.031,0.059-0.054,0.08
		c-0.151-0.007-0.038,0.249-0.107,0.322c0.024,0.521,0.264,1.061,0.43,1.53c0,0.009,0,0.018,0,0.026
		c-0.025,0.136-0.092-0.087-0.135-0.106c0.007,0.1,0.042,0.172,0.107,0.214c0.047,0.106,0.05,0.254,0.134,0.322
		c-4.125,4.641-7.104,10.429-8.963,17.335c0.161-0.026,0.283-0.324,0.402-0.483c0.036-0.009,0.042-0.048,0.081-0.053
		C161.09,27.02,161.082,27.057,161.085,27.104z"/>
	<path fill-rule="evenodd" clip-rule="evenodd" fill="#FFF6C7" d="M169.994,7.863c0.015-0.071-0.11-0.137-0.027-0.188
		c0.012,0.059,0.149,0.272,0.027,0.214C169.994,7.88,169.994,7.872,169.994,7.863z"/>
	<path fill-rule="evenodd" clip-rule="evenodd" fill="#FFFCEC" d="M170.021,8.346c-0.014-0.084,0.037-0.105,0.053-0.161
		c0.04,0.023,0.085,0.04,0.081,0.107C170.104,8.303,170.088,8.35,170.021,8.346z"/>
	<path fill-rule="evenodd" clip-rule="evenodd" fill="#FFF8D3" d="M172.49,9.714c0.371-0.255,0.696-0.555,1.153-0.725
		c0.117-0.276,0.277-0.509,0.403-0.778c-0.078,0.308-0.277,0.494-0.376,0.778c-0.436,0.201-0.814,0.457-1.154,0.751
		c-0.262,0.24-0.513,0.49-0.752,0.751c-0.203,0.226-0.394,0.464-0.59,0.698c0.133,0.444,0.197,0.987,0.35,1.422
		c-0.01,0-0.019,0-0.027,0c-0.152-0.42-0.212-0.978-0.35-1.396c0.167-0.281,0.417-0.478,0.591-0.751
		C172,10.227,172.25,9.976,172.49,9.714z"/>
	<path fill-rule="evenodd" clip-rule="evenodd" fill="#FFF8D3" d="M169.001,8.668c0.027,0,0.054,0,0.081,0
		c0,0.179,0.141,0.358,0.08,0.51C169.052,9.064,169.019,8.873,169.001,8.668z M169.028,8.694c0,0.17,0.062,0.277,0.106,0.403
		C169.142,8.92,169.084,8.808,169.028,8.694z"/>
	<path fill-rule="evenodd" clip-rule="evenodd" fill="#FFFCEC" d="M169.457,9.875c-0.065-0.042-0.101-0.114-0.107-0.214
		c0.043,0.019,0.109,0.242,0.135,0.106c0-0.009,0-0.018,0-0.026C169.57,9.792,169.513,9.837,169.457,9.875z"/>
	<path fill-rule="evenodd" clip-rule="evenodd" fill="#FFF8D3" d="M170.424,12.049c0.02,0.094,0.129,0.047,0.026,0.107
		c-0.36,0.258-0.602,0.681-0.912,1.074c-0.881,1.114-1.762,2.293-2.55,3.542c-1.052,1.668-1.886,3.513-2.684,5.421
		c0.789-1.99,1.585-3.721,2.656-5.421C168.002,15.123,169.244,13.536,170.424,12.049z"/>
	<path fill-rule="evenodd" clip-rule="evenodd" fill="#FFFCEC" d="M170.424,12.049c0.041-0.098,0.04,0.062,0.106,0.027
		c-0.021,0.076,0.038,0.07,0.027,0.134c-0.017-0.037-0.104-0.004-0.107-0.054C170.553,12.096,170.443,12.143,170.424,12.049z"/>
	<path fill-rule="evenodd" clip-rule="evenodd" fill="#FFF8D3" d="M170.691,12.854c-0.001-0.232-0.199-0.266-0.241-0.457
		c0.021-0.005,0.027-0.026,0.053-0.026c-0.066,0.081,0.019,0.181,0.108,0.188c0.038,0.069,0.044,0.17,0.107,0.215
		C170.721,12.812,170.724,12.85,170.691,12.854z"/>
	<path fill-rule="evenodd" clip-rule="evenodd" fill="#FFF8D3" d="M171.577,12.881c-0.005-0.022,0.01-0.025,0.026-0.027
		c0.015,0.021,0.028,0.043,0.027,0.081c0.062,0.076,0.022,0.114,0.081,0.215c0.192,0.166,0.229,0.485,0.374,0.698
		c-0.05-0.003-0.018-0.089-0.079-0.081c-0.082-0.349-0.336-0.523-0.403-0.886C171.595,12.881,171.586,12.881,171.577,12.881z"/>
	<path fill-rule="evenodd" clip-rule="evenodd" fill="#FFF8D3" d="M170.745,13.283c-0.003-0.077,0.015-0.175-0.026-0.214
		c0.108,0.025,0.006,0.261,0.106,0.295C170.787,13.349,170.76,13.322,170.745,13.283z"/>
	<path fill-rule="evenodd" clip-rule="evenodd" fill="#FFF8D3" d="M171.416,14.652c-0.189-0.427-0.335-0.899-0.591-1.261
		c0.039,0.006,0.046,0.044,0.081,0.054c0.196,0.349,0.338,0.753,0.51,1.126c0,0.009,0,0.018,0,0.027
		c0.026,0,0.021,0.033,0.026,0.053c0.068-0.014,0.095-0.035,0.135,0.027c-0.024,0.021-0.061,0.029-0.107,0.027
		C171.458,14.682,171.446,14.658,171.416,14.652z"/>
	<path fill-rule="evenodd" clip-rule="evenodd" fill="#FFF8D3" d="M154.725,14.008c0.442-0.034,0.87-0.027,1.314,0
		c1.869,0.295,3.214,1.258,4.294,2.254c-0.943-0.65-2.087-1.097-3.541-1.234c-0.468-0.075-1.174-0.086-1.638,0
		c-1.021,0.097-1.813,0.423-2.389,0.966c-0.123,0.057-0.212,0.146-0.269,0.269c-0.337,0.443-0.968,1.125-0.671,1.798
		c0.3,0.678,1.313,0.711,2.228,0.832c0.037,0.061,0.187,0.01,0.268,0.027c1.651,0.165,3.037,0.595,4.053,1.396
		c0.159,0.181,0.329,0.351,0.51,0.51c0.429,0.554,0.714,1.254,0.832,2.12c0.035,0.463,0.035,0.959,0,1.422
		c-0.333,2.137-1.271,3.666-2.174,5.233c-0.118,0.096-0.226,0.203-0.322,0.322c-0.162,0.069-0.269,0.195-0.455,0.241
		c-0.371-2.94-1.078-5.542-2.684-7.246c-0.19-0.257-0.414-0.48-0.672-0.67c-1.021-0.929-2.269-1.631-4.053-1.798
		c-0.609-0.092-1.396-0.061-1.985,0.027c-5.327,0.764-8.721,3.462-12.612,5.662c0-0.018,0-0.035,0-0.053
		c0.021-0.007,0.031-0.022,0.026-0.054c0.173-0.15,0.334-0.312,0.483-0.484c2.034-1.567,4.297-2.85,6.602-4.133
		c2.3-1.281,4.725-2.449,7.272-3.461c0.328-0.423,0.666-0.837,0.992-1.261c0.282-0.265,0.536-0.556,0.806-0.832
		C151.948,14.989,153.066,14.229,154.725,14.008z M158.348,20.341c-0.785-0.652-2.003-1.136-3.408-1.314
		c-1.18-0.149-3.003-0.117-3.194-1.154c-0.11-0.607,0.486-1.42,0.833-1.771c0.784-0.796,2.174-1.217,3.729-1.154
		c1.505,0.06,2.842,0.571,3.758,1.073c-1.178-0.914-2.517-1.925-4.455-2.013c-2.019-0.092-3.553,0.883-4.643,1.878
		c-0.19,0.167-0.369,0.347-0.537,0.537c0,0.009,0,0.018,0,0.027c-0.101,0.079-0.19,0.167-0.269,0.268
		c-0.396,0.302-0.633,0.991-1.02,1.261c-0.224,0.157-0.614,0.238-0.939,0.376c-2.207,0.933-4.351,1.956-6.333,3.059
		c-2.389,1.33-4.555,2.603-6.574,4.159c-0.11,0.086-0.581,0.551-0.43,0.458c2.674-1.522,5.339-3.373,8.507-4.563
		c1.525-0.573,3.443-1.179,5.421-1.1c2.026,0.081,3.417,0.801,4.669,1.852c0.204,0.226,0.419,0.441,0.645,0.644
		c1.581,1.747,2.293,4.363,2.71,7.273c0.118-0.089,0.268-0.146,0.376-0.241c0.118-0.097,0.226-0.203,0.321-0.322
		c0.365-0.514,0.726-1.212,1.074-1.905c0.304-0.605,0.605-1.326,0.805-2.014c0.469-1.616,0.473-3.698-0.537-4.803
		C158.698,20.67,158.528,20.5,158.348,20.341z"/>
	<path fill-rule="evenodd" clip-rule="evenodd" fill="#FFF6C7" d="M158.348,20.341c0.181,0.16,0.351,0.329,0.509,0.51
		C158.676,20.692,158.506,20.522,158.348,20.341z"/>
	<path fill-rule="evenodd" clip-rule="evenodd" fill="#FFF6C7" d="M157.193,29.896c0.096-0.119,0.203-0.227,0.321-0.322
		C157.419,29.692,157.312,29.799,157.193,29.896z"/>
	<path fill-rule="evenodd" clip-rule="evenodd" fill="#FFF6C7" d="M154.107,22.864c-0.226-0.203-0.44-0.418-0.645-0.644
		C153.688,22.423,153.904,22.638,154.107,22.864z"/>
	<path fill-rule="evenodd" clip-rule="evenodd" fill="#FFF5C3" d="M150.968,15.887c1.09-0.995,2.624-1.97,4.643-1.878
		c1.938,0.088,3.277,1.099,4.455,2.013c-0.916-0.502-2.253-1.014-3.758-1.073c-1.556-0.063-2.945,0.358-3.729,1.154
		c-0.347,0.351-0.943,1.164-0.833,1.771c0.191,1.037,2.015,1.004,3.194,1.154c1.405,0.179,2.623,0.663,3.408,1.314
		c0.158,0.182,0.328,0.352,0.509,0.51c1.01,1.105,1.006,3.187,0.537,4.803c-0.199,0.688-0.501,1.408-0.805,2.014
		c-0.349,0.693-0.709,1.392-1.074,1.905c-0.118,0.096-0.226,0.203-0.321,0.322c-0.108,0.096-0.258,0.152-0.376,0.241
		c-0.417-2.91-1.129-5.526-2.71-7.273c-0.203-0.226-0.419-0.44-0.645-0.644c-1.252-1.051-2.643-1.771-4.669-1.852
		c-1.978-0.079-3.896,0.527-5.421,1.1c-3.168,1.19-5.833,3.041-8.507,4.563c0.127-0.168,0.302-0.289,0.43-0.458
		c2.02-1.557,4.186-2.83,6.574-4.159c1.982-1.104,4.126-2.126,6.333-3.059c0.325-0.138,0.716-0.219,0.939-0.376
		c0.387-0.27,0.623-0.959,1.02-1.261c0.101-0.078,0.19-0.167,0.269-0.268c0-0.009,0-0.018,0-0.027
		C150.62,16.256,150.8,16.077,150.968,15.887z"/>
	<path fill-rule="evenodd" clip-rule="evenodd" fill="#FFF6C7" d="M134.866,26.031c-0.151,0.094,0.319-0.371,0.43-0.458
		C135.168,25.742,134.993,25.863,134.866,26.031z"/>
	<path fill-rule="evenodd" clip-rule="evenodd" fill="#FFF6C7" d="M150.162,16.718c0.078-0.101,0.168-0.189,0.269-0.268
		C150.353,16.551,150.263,16.64,150.162,16.718z"/>
	<path fill-rule="evenodd" clip-rule="evenodd" fill="#FFF6C7" d="M150.431,16.423c0.168-0.19,0.347-0.37,0.537-0.537
		C150.8,16.077,150.62,16.256,150.431,16.423z"/>
	<path fill-rule="evenodd" clip-rule="evenodd" fill="#FFF8D3" d="M172.221,14.169c0.021-0.093-0.029-0.114-0.053-0.161
		c0.132,0.241,0.218,0.421,0.269,0.778c-0.264,0.032-0.507,0.084-0.698,0.188c-0.001-0.016-0.004-0.032-0.026-0.026
		c0-0.009,0-0.018,0-0.027c0.103,0.056,0.22-0.075,0.322-0.107c0.136,0.001,0.221-0.046,0.375-0.027
		c-0.016-0.047,0.032-0.158-0.027-0.161C172.355,14.41,172.25,14.323,172.221,14.169z"/>
	<path fill-rule="evenodd" clip-rule="evenodd" fill="#FFF8D3" d="M152.523,17.041c0.109-0.455,0.498-0.63,0.939-0.752
		c0.152,0,0.304,0,0.456,0c0.301,0.11,0.494,0.33,0.563,0.671c0,0.125,0,0.25,0,0.376c-0.116,0.474-0.344,0.836-0.804,0.966
		c-0.126,0-0.251,0-0.377,0c-0.399-0.191-0.665-0.516-0.778-0.993C152.523,17.219,152.523,17.13,152.523,17.041z M152.604,16.853
		c-0.273,0.648,0.287,1.348,0.751,1.422c1.23,0.197,1.626-2.148,0.135-1.958C153.078,16.368,152.697,16.631,152.604,16.853z"/>
	<path fill-rule="evenodd" clip-rule="evenodd" fill="#FFF8D3" d="M154.215,17.041c-0.012,0.265-0.276,0.278-0.563,0.268
		c-0.076-0.196-0.093-0.402,0-0.59c0.297-0.01,0.592-0.02,0.563,0.295c-0.046-0.097-0.037-0.249-0.188-0.242
		c-0.068-0.022-0.429-0.107-0.375,0.081c-0.062,0.077-0.062,0.219,0,0.295c0,0.045,0,0.09,0,0.135
		c0.099-0.017,0.267,0.034,0.322-0.027C154.129,17.259,154.169,17.148,154.215,17.041z"/>
	<path fill-rule="evenodd" clip-rule="evenodd" fill="#FFFEF4" d="M153.651,16.853c-0.054-0.188,0.307-0.103,0.375-0.081
		C153.891,16.788,153.669,16.719,153.651,16.853z"/>
	<path fill-rule="evenodd" clip-rule="evenodd" fill="#FFFEF4" d="M153.651,17.147c0.036,0.008,0.021,0.068,0.027,0.107
		c0.098,0,0.195,0,0.295,0c-0.056,0.062-0.224,0.01-0.322,0.027C153.651,17.237,153.651,17.192,153.651,17.147z"/>
	<path fill-rule="evenodd" clip-rule="evenodd" fill="#FFF8D3" d="M164.225,22.408c0.074,0.012-0.021-0.146,0.053-0.134
		c-0.192,0.514-0.526,0.887-0.778,1.342C163.672,23.25,163.99,22.8,164.225,22.408z"/>
	<path fill-rule="evenodd" clip-rule="evenodd" fill="#FFF8D3" d="M163.204,23.776c0.063-0.009,0.05-0.093,0.135-0.081
		c0,0.018,0,0.036,0,0.053c0.087,0.007,0.129-0.031,0.134-0.106c0.01,0,0.019,0,0.026,0c0.005,0.091-0.146,0.197-0.187,0.081
		c-0.053,0.013-0.188,0.208-0.081,0.134c-0.104,0.191-0.217,0.374-0.35,0.537c0.213-0.091,0.296-0.314,0.377-0.537
		c0.001,0.199-0.176,0.45-0.351,0.563c-0.072,0.002-0.053-0.045-0.106,0c-0.008,0.053,0.036,0.053,0.055,0.081
		c-0.025,0.048-0.061,0.083-0.108,0.107c0.002-0.024,0.013-0.1,0.026-0.188C162.945,24.232,163.064,23.994,163.204,23.776z
		 M162.963,24.26c0.051-0.093,0.189-0.24,0.161-0.323C163.083,24.04,162.936,24.178,162.963,24.26z"/>
	<path fill-rule="evenodd" clip-rule="evenodd" fill="#FFFEF4" d="M163.259,23.857c-0.081,0.222-0.164,0.445-0.377,0.537
		c0.133-0.163,0.245-0.346,0.35-0.537C163.24,23.857,163.249,23.857,163.259,23.857z"/>
	<path fill-rule="evenodd" clip-rule="evenodd" fill="#FFF6C7" d="M163.124,23.937c0.028,0.083-0.11,0.23-0.161,0.323
		C162.936,24.178,163.083,24.04,163.124,23.937z"/>
	<path fill-rule="evenodd" clip-rule="evenodd" fill="#FFFCEC" d="M162.533,24.796c-0.006-0.051,0.03-0.06,0.027-0.107
		c0.026,0,0.053,0,0.08,0c0.075-0.047,0.025-0.071,0.027-0.161c0.098,0.026,0.022-0.121,0.106-0.107
		c-0.014,0.088-0.024,0.164-0.026,0.188c-0.001,0.053-0.072,0.033-0.053,0.107c-0.082-0.027-0.049,0.06-0.055,0.107
		c-0.032-0.003-0.063-0.007-0.054-0.053C162.561,24.77,162.555,24.791,162.533,24.796z"/>
	<path fill-rule="evenodd" clip-rule="evenodd" fill="#FFF8D3" d="M162.533,24.796c0.021-0.005,0.027-0.026,0.054-0.026
		c-0.01,0.046,0.021,0.05,0.054,0.053c0.006-0.048-0.027-0.135,0.055-0.107c-0.006,0.022-0.027,0.027-0.027,0.054
		c-0.004,0.048,0.032,0.057,0.027,0.107c-0.044,0.007-0.047-0.024-0.082-0.028c-0.054,0.161-0.099,0.331-0.295,0.351
		c0.02,0.178-0.191,0.271-0.188,0.348c-0.011,0.051-0.059,0.068-0.054,0.133c0.024,0.064,0.082-0.058,0.081-0.107
		c0-0.009,0-0.018,0-0.026c0.02,0.095-0.016,0.233-0.107,0.268c0.002-0.1,0.029-0.075,0-0.161c-0.245,0.461-0.59,1.01-0.939,1.449
		c0.02-0.069,0.097-0.082,0.107-0.16c0.405-0.604,0.748-1.154,1.1-1.771c0.178-0.021,0.219-0.175,0.269-0.324
		C162.555,24.847,162.523,24.842,162.533,24.796z"/>
	<path fill-rule="evenodd" clip-rule="evenodd" fill="#FFF8D3" d="M162.186,26.031c0.063-0.043,0.118-0.097,0.16-0.162
		c-0.233,0.33-0.556,0.805-0.859,1.154c-0.009,0-0.017,0-0.026,0c0.001,0.046-0.021,0.068-0.054,0.08
		c0-0.027,0.021-0.033,0.027-0.054C161.701,26.728,161.968,26.404,162.186,26.031z"/>
	<path fill-rule="evenodd" clip-rule="evenodd" fill="#FFF8D3" d="M161.165,27.346c0.096-0.057,0.145-0.159,0.241-0.215
		c0.01,0.064-0.199,0.14-0.215,0.27c-0.142,0.098-0.177,0.305-0.295,0.429c-0.066,0.042-0.078-0.091-0.027-0.081
		c0.007,0.021,0.001,0.053,0.027,0.055c-0.005-0.095,0.091-0.089,0.107-0.163C161.023,27.509,161.127,27.459,161.165,27.346z"/>
	<path fill-rule="evenodd" clip-rule="evenodd" fill="#FFF8D3" d="M171.04,29.734c-0.721-0.684-1.688-1.121-2.495-1.718
		c0.855,0.55,1.763,1.045,2.522,1.691c0.546,0.526,1.079,1.066,1.609,1.609c3.262,3.858,5.808,8.434,6.925,14.438
		c0.019,0.329,0.037,0.66,0.026,1.019c-0.066,0.362-0.18,0.68-0.483,0.806c-0.009,0-0.018,0-0.027,0
		c0.288-0.137,0.447-0.441,0.484-0.859c0.072-0.841-0.148-1.718-0.322-2.47c-1.201-5.189-3.775-9.612-6.629-12.908
		c-0.086-0.108-0.186-0.206-0.295-0.294c0-0.009,0-0.018,0-0.026c-0.329-0.352-0.668-0.691-1.02-1.021c-0.01,0-0.019,0-0.027,0
		C171.23,29.9,171.141,29.812,171.04,29.734z"/>
	<path fill-rule="evenodd" clip-rule="evenodd" fill="#FFF8D3" d="M159.635,33.303c-0.417-0.404-0.764-0.881-1.046-1.422
		c0.098,0.018,0.195,0.037,0.322,0.026c0.096,0.119,0.203,0.226,0.322,0.322c0.046,0.104,0.096,0.208,0.16,0.296
		c0.069,0.146,0.19,0.238,0.322,0.32c0.106,0.137,0.223,0.261,0.375,0.35c0.083,0.088,0.143,0.198,0.27,0.242
		c1.508,0.898,3.408,1.402,5.609,1.609c0.558,0.077,1.164,0.104,1.797,0.106c0.832,0.94,1.578,1.967,2.441,2.873
		c0.317,0.389,0.651,0.762,1.047,1.073c0.638,0.633,1.413,1.128,2.496,1.313c0.195-0.232,0.34-0.517,0.349-0.938
		c0.065-0.182,0.007-0.471-0.026-0.645c-0.089-0.788-0.336-1.416-0.43-2.199c0.017-0.073-0.034-0.213,0.027-0.241
		c0.047,0.024,0.044,0.098,0.106,0.106c1.026,1.506,1.629,3.434,2.818,4.777c0.016,0.12,0.233,0.29,0.269,0.08
		c0.043-0.021,0.043-0.221,0-0.241c-0.017-0.081,0.034-0.231-0.027-0.269c-0.36-2.86-1.598-4.843-3.086-6.574
		c-0.276-0.359-0.583-0.688-0.938-0.967c-1.351-1.263-3.025-2.199-5.396-2.442c-0.665-0.104-1.585-0.112-2.28-0.026
		c-0.027,0-0.054,0-0.081,0c1.923-2.791,4.306-5.123,4.938-9.205c0.084-0.5,0.078-1.243,0-1.744
		c-0.142-1.094-0.345-2.125-1.262-2.442c-0.063-0.044-0.312-0.044-0.376,0c-0.274,0.038-0.458,0.168-0.617,0.322
		c-0.222,0.154-0.408,0.342-0.562,0.563c-0.854,1.029-1.569,2.243-2.229,3.435c-0.176,0.32-0.341,0.687-0.536,1.021
		c-0.132,0.225-0.244,0.468-0.376,0.67c-0.083,0.128-0.243,0.196-0.322,0.322c-0.118,0.19-0.161,0.383-0.295,0.563
		c-0.367,0.495-0.733,1-1.073,1.502c0.006-0.037,0.044-0.044,0.054-0.079c0.292-0.508,0.667-0.988,0.993-1.423
		c0.126-0.169,0.183-0.346,0.295-0.537c0.081-0.135,0.234-0.216,0.321-0.349c0.234-0.351,0.403-0.833,0.618-1.234
		c0.104-0.194,0.294-0.332,0.376-0.509c0.045-0.099,0.033-0.217,0.08-0.323c0.114-0.256,0.323-0.547,0.482-0.805
		c0.502-0.809,1.063-1.568,1.584-2.308c0.19-0.168,0.368-0.346,0.537-0.536c0.315-0.164,0.518-0.424,1.02-0.35
		c0.765,0.114,1.096,1.177,1.233,1.906c0.437,2.305-0.315,4.396-1.046,5.85c-1.019,2.025-2.307,3.639-3.569,5.341
		c-0.073,0.098-0.247,0.188-0.188,0.322c3.502-0.313,5.954,0.877,7.729,2.469c0.212,0.234,0.437,0.459,0.671,0.671
		c1.43,1.674,2.833,3.714,3.273,6.388c0.063,0.381,0.213,0.895-0.026,1.153c-1.179-1.152-1.831-3.023-2.71-4.454
		c-0.11-0.181-0.284-0.569-0.402-0.538c0.064,1.273,0.985,2.967,0.053,3.945c-1.094-0.186-1.825-0.733-2.522-1.315
		c-0.222-0.243-0.453-0.476-0.698-0.698c0-0.009,0-0.018,0-0.026c-0.095-0.119-0.203-0.226-0.321-0.322
		c-0.643-0.764-1.188-1.436-1.825-2.199c-0.196-0.234-0.45-0.639-0.67-0.698c-0.304-0.081-0.712-0.007-1.047-0.028
		c-0.343-0.02-0.689-0.071-0.993-0.106c-2.158-0.245-4.459-0.785-5.717-1.932c-0.306-0.28-0.565-0.512-0.724-0.858
		c-0.097-0.119-0.204-0.226-0.322-0.322c-0.104,0.004-0.197,0-0.269-0.027c0.254,0.417,0.494,0.811,0.806,1.153
		c0.318,0.354,0.732,0.569,1.101,0.86c0.735,0.581,1.548,1.066,2.441,1.476c1.796,0.821,3.827,1.369,5.527,2.308
		c0.088,0.109,0.187,0.209,0.296,0.295c0.674,0.945,0.886,2.211,1.342,3.328c0.463,1.133,0.939,2.201,1.664,3.033
		c0.123,0.145,0.258,0.278,0.403,0.4c1.558,1.402,3.784,2.138,6.064,2.819c-0.009,0-0.018,0-0.027,0
		c-2.315-0.638-4.474-1.431-6.064-2.791c-0.124-0.146-0.258-0.28-0.403-0.402c-0.653-0.839-1.162-1.783-1.637-2.927
		c-0.466-1.12-0.679-2.591-1.368-3.407c-0.074-0.14-0.182-0.248-0.322-0.322c-0.604-0.483-1.521-0.712-2.334-1.047
		c-0.759-0.312-1.549-0.597-2.256-0.886c-1.534-0.625-2.8-1.364-3.971-2.28C159.808,33.434,159.742,33.348,159.635,33.303z"/>
	<path fill-rule="evenodd" clip-rule="evenodd" fill="#FFFEF4" d="M176.354,1.449c-0.062-0.072-0.01-0.258-0.027-0.375
		C176.39,1.146,176.337,1.332,176.354,1.449z"/>
	<path fill-rule="evenodd" clip-rule="evenodd" fill="#FFFFFF" d="M170.155,8.292c0.004-0.067-0.041-0.084-0.081-0.107
		c-0.016,0.056-0.066,0.076-0.053,0.161C170.088,8.35,170.104,8.303,170.155,8.292z M171.818,13.901
		c0.005-0.077,0.004-0.146-0.08-0.134C171.741,13.835,171.743,13.904,171.818,13.901z"/>
	<path fill-rule="evenodd" clip-rule="evenodd" fill="#FFFCEC" d="M174.637,7.594c0.039-0.095,0.122-0.146,0.134-0.268
		c0.015,0.107,0.015,0.081,0,0.188C174.703,7.534,174.686,7.517,174.637,7.594z"/>
	<path fill-rule="evenodd" clip-rule="evenodd" fill="#FFF6C7" d="M170.021,7.621c-0.039-0.007-0.046-0.044-0.082-0.054
		c-0.003,0.04,0.011,0.099-0.026,0.107c-0.004-0.076-0.049-0.112-0.053-0.188c0.024,0.017,0.099,0.063,0.079-0.026
		C169.985,7.496,169.981,7.58,170.021,7.621z"/>
	<path fill-rule="evenodd" clip-rule="evenodd" fill="#FFFFFF" d="M154.026,16.772c0.151-0.007,0.143,0.145,0.188,0.242
		c0,0.009,0,0.018,0,0.027c-0.046,0.107-0.086,0.218-0.241,0.214c-0.1,0-0.197,0-0.295,0c-0.006-0.04,0.009-0.099-0.027-0.107
		c-0.062-0.076-0.062-0.218,0-0.295C153.669,16.719,153.891,16.788,154.026,16.772z"/>
	<path fill-rule="evenodd" clip-rule="evenodd" fill="#FFFEF4" d="M154.054,18.892c0.082,0.017,0.23-0.034,0.268,0.027
		C154.24,18.902,154.091,18.953,154.054,18.892z"/>
	<path fill-rule="evenodd" clip-rule="evenodd" fill="#FFFCEC" d="M162.158,25.547c0,0.009,0,0.018,0,0.026
		c0.001,0.049-0.057,0.171-0.081,0.107c-0.005-0.065,0.043-0.083,0.054-0.133C162.14,25.547,162.148,25.547,162.158,25.547z"/>
	<path fill-rule="evenodd" clip-rule="evenodd" fill="#FFFEF4" d="M160.387,27.829c0.017-0.082-0.034-0.233,0.026-0.269
		C160.396,27.642,160.447,27.792,160.387,27.829z"/>
	<path fill-rule="evenodd" clip-rule="evenodd" fill="#FFFEF4" d="M176.837,40.844c0.062,0.037,0.011,0.188,0.027,0.269
		C176.803,41.075,176.854,40.925,176.837,40.844z"/>
	<path fill-rule="evenodd" clip-rule="evenodd" fill="#FFFEF4" d="M179.628,46.774c0.011-0.358-0.008-0.689-0.026-1.019
		C179.662,46.025,179.684,46.477,179.628,46.774z"/>
	<path fill-rule="evenodd" clip-rule="evenodd" fill="#734512" d="M153.49,16.316c1.491-0.189,1.096,2.155-0.135,1.958
		c-0.464-0.075-1.024-0.774-0.751-1.422C152.697,16.631,153.078,16.368,153.49,16.316z M154.215,17.014
		c0.028-0.315-0.267-0.305-0.563-0.295c-0.093,0.188-0.076,0.395,0,0.59c0.287,0.01,0.552-0.002,0.563-0.268
		C154.215,17.032,154.215,17.022,154.215,17.014z"/>
	<path fill-rule="evenodd" clip-rule="evenodd" fill="#FFFEF4" d="M176.354,1.69c-0.018,0.117,0.035,0.303-0.027,0.375
		C176.345,1.949,176.292,1.763,176.354,1.69z"/>
	<path fill-rule="evenodd" clip-rule="evenodd" fill="#FFFEF4" d="M175.522,4.696c-0.018,0.1,0.034,0.268-0.027,0.322
		C175.512,4.919,175.46,4.75,175.522,4.696z"/>
	<path fill-rule="evenodd" clip-rule="evenodd" fill="#FFFEF4" d="M174.529,7.889c-0.017,0.1,0.034,0.268-0.027,0.322
		C174.52,8.113,174.468,7.944,174.529,7.889z"/>
	<path fill-rule="evenodd" clip-rule="evenodd" fill="#FFFEF4" d="M173.992,9.661c0.047,1.286,0.064,2.737-0.106,3.891
		C174.018,12.358,173.989,10.9,173.992,9.661z"/>
	<path fill-rule="evenodd" clip-rule="evenodd" fill="#FFFEF4" d="M154.725,14.008c0.384-0.078,0.93-0.071,1.314,0
		C155.595,13.981,155.167,13.975,154.725,14.008z"/>
	<path fill-rule="evenodd" clip-rule="evenodd" fill="#FFFEF4" d="M155.154,15.028c0.464-0.086,1.17-0.075,1.638,0
		C156.265,14.997,155.678,14.985,155.154,15.028z"/>
	<path fill-rule="evenodd" clip-rule="evenodd" fill="#FFFEF4" d="M168.356,17.443c0.064-0.044,0.312-0.044,0.376,0
		C168.607,17.443,168.481,17.443,168.356,17.443z"/>
	<path fill-rule="evenodd" clip-rule="evenodd" fill="#FFFEF4" d="M169.994,19.885c0.078,0.501,0.084,1.245,0,1.744
		C170.034,21.071,170.029,20.445,169.994,19.885z"/>
	<path fill-rule="evenodd" clip-rule="evenodd" fill="#FFFEF4" d="M147.371,20.476c0.59-0.088,1.376-0.119,1.985-0.027
		C148.688,20.401,148.02,20.431,147.371,20.476z"/>
	<path fill-rule="evenodd" clip-rule="evenodd" fill="#FFFEF4" d="M159.716,22.944c0.078,0.404,0.078,1.019,0,1.422
		C159.751,23.904,159.751,23.407,159.716,22.944z"/>
	<path fill-rule="evenodd" clip-rule="evenodd" fill="#FFFEF4" d="M165.137,30.834c0.695-0.086,1.615-0.077,2.28,0.026
		C166.692,30.799,165.893,30.792,165.137,30.834z"/>
	<path fill-rule="evenodd" clip-rule="evenodd" fill="#FFFEF4" d="M165.97,35.047c0.598,0.036,1.209,0.061,1.797,0.106
		C167.134,35.151,166.527,35.124,165.97,35.047z"/>
	<path fill-rule="evenodd" clip-rule="evenodd" fill="#FFFEF4" d="M174.073,38.83c0.033,0.174,0.092,0.463,0.026,0.645
		C174.121,39.231,174.063,39.065,174.073,38.83z"/>
</g>
</svg>
